<?xml version="1.0" encoding="utf-8"?>
<!-- Generator: Adobe Illustrator 26.0.3, SVG Export Plug-In . SVG Version: 6.00 Build 0)  -->
<svg version="1.1" id="Layer_1" xmlns="http://www.w3.org/2000/svg" xmlns:xlink="http://www.w3.org/1999/xlink" x="0px" y="0px"
	 viewBox="0 0 36.1 48.9" style="enable-background:new 0 0 36.1 48.9;" xml:space="preserve">
	 <style>
	 	path {
			fill: #6116DC;
		}
		@media (prefers-color-scheme: dark) {
			path {
				fill: #FFFFFF;
			}
		}
	 </style>
<path d="M10.5,43h9.2c3.3,0,5.9-1,7.8-3.1c1.4-1.5,2.1-3.5,2.1-5.9c0-2.5-0.7-4.6-2.2-6.4c-1.6-2-4.2-3-7.7-3h-9.2V43z M10.5,18.9
	h9.2c2.2,0,3.9-0.7,5.2-2.1c1.2-1.3,1.8-2.9,1.8-4.9c0-1.6-0.7-3.1-2.1-4.4c-1.3-1.1-2.9-1.7-4.9-1.7h-9.2V18.9z M4.7,48.9
	c-0.4,0-0.7-0.3-0.7-0.7V2c0-0.3,0.2-0.5,0.4-0.6l2.9-1.4C7.4,0,7.5,0,7.6,0h12.1c3.7,0,6.7,1,9.1,3c2.9,2.3,4.3,5.3,4.3,9
	c0,3.7-1.6,6.8-4.9,9.3c1.1,0.5,2.1,1.1,3.1,2c3.2,2.9,4.7,6.4,4.7,10.7c0,4.3-1.4,7.8-4.1,10.5c-3,3-7,4.4-12.2,4.4H4.7z"/>
<path d="M0,2c0-0.4,0.3-0.7,0.7-0.7h1c0.4,0,0.7,0.3,0.7,0.7v46.2c0,0.4-0.3,0.7-0.7,0.7h-1c-0.4,0-0.7-0.3-0.7-0.7V2z"/>
</svg>
