<svg width="128" height="128" viewBox="0 0 128 128" fill="none" xmlns="http://www.w3.org/2000/svg">
<path d="M57.765 114C55.9987 114 54.5192 113.4 53.3264 112.2C52.1295 111.004 51.531 109.521 51.531 107.75V70.25L15.3741 24C13.8156 21.9167 13.5828 19.7292 14.6759 17.4375C15.7647 15.1458 17.6598 14 20.3612 14H107.637C110.338 14 112.235 15.1458 113.328 17.4375C114.417 19.7292 114.182 21.9167 112.624 24L76.4668 70.25V107.75C76.4668 109.521 75.8705 111.004 74.6777 112.2C73.4808 113.4 71.9992 114 70.2329 114H57.765Z" fill="#1DBA53"/>
</svg>
