<svg width="55" height="55" viewBox="0 0 55 55" fill="none" xmlns="http://www.w3.org/2000/svg">
  <style>
	 	#main-logo-grid {
			fill: #17191C;
		}
		@media (prefers-color-scheme: dark) {
			#main-logo-grid {
				fill: white;
			}
		}
	 </style>
  <path id='main-logo-grid' d="M8.5917 55H13.7467V41.2524H0V46.4078C0 48.6865 0.905195 50.872 2.51645 52.4834C4.12771 54.0947 6.31305 55 8.5917 55ZM13.7467 24.0679V37.8155H0V24.0679H13.7467ZM30.9302 37.8155H17.1834V24.0679H30.9302V37.8155ZM17.1834 41.2524H30.9302V55H17.1834V41.2524ZM34.3669 24.0679V37.8155H48.1136V24.0679H34.3669ZM34.3669 41.2524H48.1136V46.4078C48.1136 48.6865 47.2083 50.872 45.5971 52.4834C43.9859 54.0947 41.8005 55 39.5218 55H34.3669V41.2524ZM0 20.631H13.7467V6.88342H8.5917C6.31305 6.88342 4.12771 7.78868 2.51645 9.40004C0.905195 11.0114 0 13.1969 0 15.4757V20.631ZM17.1834 20.631V6.88342H30.9302V20.631H17.1834Z" fill="white"/>
  <path d="M46.3986 0C45.4873 0 44.6134 0.361958 43.9689 1.00628H43.9654L38.8001 6.17193C38.1559 6.81644 37.7939 7.69048 37.7939 8.60182C37.7939 9.51314 38.1559 10.3871 38.8001 11.0317L43.9689 16.1974C44.6134 16.8417 45.4873 17.2036 46.3986 17.2036C47.31 17.2036 48.1839 16.8417 48.8284 16.1974L53.9937 11.0317C54.638 10.3871 54.9999 9.51314 54.9999 8.60182C54.9999 7.69048 54.638 6.81644 53.9937 6.17193L48.8284 1.00628C48.1839 0.361958 47.31 0 46.3986 0Z" fill="#1DBA53"/>
</svg>
