<svg width="393" height="45" viewBox="0 0 393 45" fill="none" xmlns="http://www.w3.org/2000/svg">
<path d="M42.4626 1.79999V44.2285H34.5009V17.0678L34.8846 10.8964L33.4457 17.9035L25.1642 41.2071H17.2984L9.04889 17.9035L7.64199 10.8964L7.99371 17.0678V44.2285H0V1.79999H11.0633L20.7197 32.0464L21.2313 34.9392L21.7429 32.0464L31.4313 1.79999H42.4626Z" fill="#17191C"/>
<path d="M63.4102 45C60.6174 45 58.1233 44.3999 55.928 43.2C53.7537 41.9999 52.0481 40.3607 50.8121 38.2821C49.576 36.1821 48.9575 33.7928 48.9575 31.1143C48.9575 28.4357 49.576 26.0464 50.8121 23.9464C52.0481 21.825 53.7537 20.1536 55.928 18.9322C58.1233 17.6892 60.6174 17.0679 63.4102 17.0679C66.2239 17.0679 68.707 17.6892 70.8603 18.9322C73.0136 20.1536 74.6973 21.825 75.9123 23.9464C77.1274 26.0464 77.7349 28.4357 77.7349 31.1143C77.7349 33.7928 77.1274 36.1821 75.9123 38.2821C74.6973 40.3607 73.0136 41.9999 70.8603 43.2C68.707 44.3999 66.2239 45 63.4102 45ZM63.4102 38.2178C64.7531 38.2178 65.9152 37.9178 66.8954 37.3178C67.8976 36.6964 68.665 35.8499 69.1976 34.7786C69.7522 33.6857 70.0289 32.4535 70.0289 31.0821C70.0289 29.7106 69.7522 28.4786 69.1976 27.3857C68.665 26.2929 67.8976 25.4356 66.8954 24.8143C65.9152 24.1714 64.7531 23.85 63.4102 23.85C62.0672 23.85 60.8951 24.1714 59.8929 24.8143C58.9127 25.4356 58.1453 26.2929 57.5907 27.3857C57.0362 28.4786 56.7594 29.7106 56.7594 31.0821C56.7594 32.4535 57.0362 33.6857 57.5907 34.7786C58.1453 35.8499 58.9127 36.6964 59.8929 37.3178C60.8951 37.9178 62.0672 38.2178 63.4102 38.2178Z" fill="#17191C"/>
<path d="M94.5695 45C92.0755 45 89.8792 44.3999 87.9827 43.2C86.1062 41.9785 84.6354 40.3177 83.5702 38.2178C82.525 36.0964 82.0034 33.7071 82.0034 31.05C82.0034 28.3928 82.525 26.0142 83.5702 23.9143C84.6354 21.7928 86.1062 20.1214 87.9827 18.9C89.8792 17.6786 92.0755 17.0679 94.5695 17.0679C96.3382 17.0679 97.9049 17.3571 99.2699 17.9357C100.655 18.5143 101.764 19.1999 102.595 19.9928C103.427 20.7857 103.916 21.4928 104.066 22.1143V0H112.22V44.2285H104.162V39.6321C103.82 40.382 103.192 41.175 102.275 42.0107C101.358 42.8464 100.239 43.5535 98.9181 44.1321C97.5962 44.7107 96.1463 45 94.5695 45ZM96.8717 38.5071C98.2357 38.5071 99.4617 38.1963 100.549 37.575C101.636 36.9321 102.488 36.0535 103.107 34.9393C103.746 33.8035 104.066 32.507 104.066 31.05C104.066 29.5928 103.746 28.3071 103.107 27.1928C102.488 26.0571 101.636 25.1678 100.549 24.525C99.4617 23.8821 98.2357 23.5607 96.8717 23.5607C95.6137 23.5607 94.4626 23.8821 93.4185 24.525C92.3733 25.1463 91.5319 26.0249 90.8924 27.1607C90.2739 28.2749 89.9642 29.5714 89.9642 31.05C89.9642 32.5285 90.2739 33.8356 90.8924 34.9714C91.5319 36.0856 92.3733 36.9535 93.4185 37.575C94.4626 38.1963 95.6137 38.5071 96.8717 38.5071Z" fill="#17191C"/>
<path d="M125.707 30.4714C125.707 32.8285 126.177 34.7143 127.115 36.1286C128.052 37.5213 129.566 38.2178 131.655 38.2178C133.765 38.2178 135.29 37.5213 136.228 36.1286C137.165 34.7143 137.634 32.8285 137.634 30.4714V17.8393H145.628V31.4036C145.628 34.1249 145.085 36.5143 143.998 38.5714C142.911 40.607 141.322 42.1928 139.233 43.3285C137.165 44.4428 134.639 45 131.655 45C128.692 45 126.166 44.4428 124.078 43.3285C122.009 42.1928 120.431 40.607 119.344 38.5714C118.257 36.5143 117.715 34.1249 117.715 31.4036V17.8393H125.707V30.4714Z" fill="#17191C"/>
<path d="M160.412 44.2285H152.258V0H160.412V44.2285Z" fill="#17191C"/>
<path d="M187.963 44.2285V39.6321C187.771 40.1035 187.281 40.7678 186.492 41.625C185.704 42.4821 184.638 43.2643 183.295 43.9714C181.973 44.657 180.417 45 178.627 45C176.112 45 173.883 44.3999 171.944 43.2C170.004 41.9785 168.48 40.3178 167.371 38.2178C166.284 36.0964 165.741 33.7071 165.741 31.05C165.741 28.3928 166.284 26.0142 167.371 23.9143C168.48 21.7929 170.004 20.1214 171.944 18.9C173.883 17.6786 176.112 17.0679 178.627 17.0679C180.374 17.0679 181.888 17.3678 183.167 17.9679C184.467 18.5464 185.512 19.2321 186.301 20.025C187.111 20.7964 187.633 21.4928 187.867 22.1143V17.8393H195.925V44.2285H187.963ZM173.702 31.05C173.702 32.5286 174.033 33.8357 174.694 34.9714C175.354 36.0857 176.228 36.9535 177.316 37.575C178.403 38.1963 179.586 38.5071 180.865 38.5071C182.208 38.5071 183.402 38.1963 184.446 37.575C185.49 36.9321 186.312 36.0535 186.908 34.9393C187.527 33.8035 187.835 32.5071 187.835 31.05C187.835 29.5928 187.527 28.3071 186.908 27.1929C186.312 26.0571 185.49 25.1679 184.446 24.525C183.402 23.8821 182.208 23.5607 180.865 23.5607C179.586 23.5607 178.403 23.8821 177.316 24.525C176.228 25.1464 175.354 26.025 174.694 27.1607C174.033 28.275 173.702 29.5714 173.702 31.05Z" fill="#17191C"/>
<path d="M210.17 44.2285H202.048V17.8393H210.17V22.1143H210.01C210.16 21.6 210.565 20.9464 211.225 20.1536C211.907 19.3607 212.846 18.6535 214.039 18.0322C215.233 17.3893 216.672 17.0679 218.355 17.0679C219.57 17.0679 220.669 17.25 221.65 17.6143C222.651 17.9571 223.365 18.2999 223.791 18.6429L220.595 25.3286C220.317 24.9857 219.794 24.6321 219.027 24.2679C218.281 23.9035 217.343 23.7214 216.213 23.7214C214.87 23.7214 213.751 24.0964 212.856 24.8464C211.96 25.575 211.289 26.475 210.841 27.5464C210.394 28.5964 210.17 29.5821 210.17 30.5036V44.2285Z" fill="#17191C"/>
<path d="M285.771 1.79999V44.2285H277.81V17.0678L278.193 10.8964L276.754 17.9035L268.473 41.2071H260.607L252.358 17.9035L250.951 10.8964L251.302 17.0678V44.2285H243.309V1.79999H254.372L264.028 32.0464L264.54 34.9392L265.052 32.0464L274.74 1.79999H285.771Z" fill="#17191C"/>
<path d="M301.507 30.4714C301.507 32.8285 301.976 34.7143 302.914 36.1286C303.852 37.5213 305.365 38.2178 307.454 38.2178C309.565 38.2178 311.088 37.5213 312.027 36.1286C312.965 34.7143 313.434 32.8285 313.434 30.4714V17.8393H321.427V31.4036C321.427 34.1249 320.884 36.5143 319.797 38.5714C318.709 40.607 317.122 42.1928 315.032 43.3285C312.965 44.4428 310.439 45 307.454 45C304.492 45 301.966 44.4428 299.876 43.3285C297.809 42.1928 296.231 40.607 295.144 38.5714C294.057 36.5143 293.513 34.1249 293.513 31.4036V17.8393H301.507V30.4714Z" fill="#17191C"/>
<path d="M338.838 17.0679C340.415 17.0679 341.875 17.2178 343.218 17.5179C344.561 17.7964 345.691 18.1178 346.608 18.4822C347.546 18.8464 348.163 19.1572 348.462 19.4143L345.68 24.3321C345.254 23.9892 344.486 23.5821 343.378 23.1107C342.291 22.6392 341.076 22.4036 339.733 22.4036C338.518 22.4036 337.495 22.6178 336.663 23.0464C335.832 23.4535 335.416 24.075 335.416 24.9107C335.416 25.7464 335.864 26.4107 336.759 26.9036C337.655 27.3964 338.902 27.825 340.5 28.1893C341.843 28.4678 343.165 28.8964 344.465 29.475C345.765 30.0321 346.842 30.8464 347.695 31.9178C348.547 32.9678 348.974 34.3714 348.974 36.1286C348.974 37.8643 348.601 39.3107 347.855 40.4678C347.13 41.6035 346.16 42.5035 344.945 43.1678C343.73 43.8321 342.398 44.3035 340.948 44.5821C339.498 44.8607 338.059 45 336.631 45C334.777 45 333.146 44.8178 331.739 44.4535C330.332 44.1106 329.17 43.7143 328.254 43.2643C327.359 42.7928 326.719 42.3964 326.335 42.075L329.117 36.6107C329.672 37.1035 330.577 37.6499 331.835 38.25C333.114 38.8286 334.489 39.1178 335.96 39.1178C337.495 39.1178 338.699 38.8499 339.573 38.3143C340.468 37.7785 340.916 37.0607 340.916 36.1607C340.916 35.4963 340.703 34.9607 340.276 34.5536C339.85 34.125 339.264 33.7714 338.518 33.4928C337.771 33.2142 336.898 32.9678 335.896 32.7536C334.98 32.5607 334.041 32.2821 333.082 31.9178C332.123 31.5321 331.228 31.0285 330.396 30.4071C329.565 29.7857 328.893 29.0142 328.382 28.0929C327.87 27.15 327.614 26.025 327.614 24.7179C327.614 23.0464 328.147 21.6535 329.213 20.5393C330.279 19.4035 331.664 18.5464 333.37 17.9679C335.076 17.3678 336.898 17.0679 338.838 17.0679Z" fill="#17191C"/>
<path d="M355.108 44.2285V17.8393H363.198V44.2285H355.108ZM359.265 11.025C357.922 11.025 356.782 10.5535 355.843 9.6107C354.927 8.66781 354.468 7.54281 354.468 6.23571C354.468 4.9285 354.937 3.79285 355.875 2.82857C356.814 1.86428 357.943 1.38214 359.265 1.38214C360.139 1.38214 360.938 1.60714 361.663 2.05714C362.387 2.48564 362.974 3.06422 363.421 3.79285C363.869 4.52139 364.093 5.33571 364.093 6.23571C364.093 7.54281 363.613 8.66781 362.654 9.6107C361.716 10.5535 360.587 11.025 359.265 11.025Z" fill="#17191C"/>
<path d="M384.111 38.5071C385.496 38.5071 386.626 38.2714 387.5 37.8C388.374 37.3285 388.949 36.9749 389.227 36.7393L393 42.3643C392.701 42.5999 392.147 42.9321 391.337 43.3607C390.527 43.7892 389.493 44.1643 388.235 44.4857C386.999 44.8285 385.581 45 383.982 45C381.211 45 378.728 44.4428 376.532 43.3285C374.337 42.1928 372.599 40.5857 371.32 38.5071C370.063 36.4071 369.434 33.9107 369.434 31.0178C369.434 28.1035 370.063 25.6071 371.32 23.5286C372.599 21.4499 374.337 19.8535 376.532 18.7393C378.728 17.6249 381.211 17.0679 383.982 17.0679C385.56 17.0679 386.957 17.2392 388.172 17.5822C389.408 17.925 390.442 18.3214 391.273 18.7714C392.105 19.1999 392.68 19.5535 393 19.8322L389.13 25.4893C388.981 25.3178 388.693 25.0821 388.268 24.7821C387.841 24.4821 387.276 24.2036 386.572 23.9464C385.891 23.6893 385.07 23.5607 384.111 23.5607C382.938 23.5607 381.819 23.8714 380.753 24.4929C379.709 25.1142 378.856 25.9821 378.195 27.0964C377.534 28.2107 377.203 29.5178 377.203 31.0178C377.203 32.5178 377.534 33.8357 378.195 34.9714C378.856 36.0857 379.709 36.9535 380.753 37.575C381.819 38.1963 382.938 38.5071 384.111 38.5071Z" fill="#17191C"/>
</svg>
