<svg width="128" height="128" viewBox="0 0 128 128" fill="none" xmlns="http://www.w3.org/2000/svg">
<path d="M112.425 84.4164C112.924 84.9072 113.32 85.4903 113.59 86.1324C113.861 86.7745 114 87.4629 114 88.1581C114 88.8533 113.861 89.5417 113.59 90.1838C113.32 90.8259 112.924 91.409 112.425 91.8997L101.712 102.464C100.701 103.448 99.3378 104 97.9175 104C96.4973 104 95.1342 103.448 94.1234 102.464C93.624 101.974 93.2278 101.391 92.9575 100.748C92.6871 100.106 92.5479 99.418 92.5479 98.7228C92.5479 98.0275 92.6871 97.3391 92.9575 96.6971C93.2278 96.055 93.624 95.4719 94.1234 94.9811L95.6857 93.4404H81.8929C80.4696 93.4374 79.0676 93.1005 77.8025 92.4575C76.5373 91.8146 75.4455 90.884 74.617 89.7428L41.5857 44.1385H19.3564C17.9358 44.1385 16.5734 43.582 15.5689 42.5914C14.5643 41.6007 14 40.2572 14 38.8562C14 37.4552 14.5643 36.1116 15.5689 35.121C16.5734 34.1304 17.9358 33.5739 19.3564 33.5739H42.523C43.9463 33.5769 45.3483 33.9138 46.6134 34.5568C47.8786 35.1997 48.9704 36.1302 49.7989 37.2715L82.8302 82.8757H95.6857L94.1234 81.3351C93.1171 80.3427 92.5518 78.9968 92.5518 77.5934C92.5518 76.19 93.1171 74.8441 94.1234 73.8517C95.1297 72.8594 96.4945 72.3019 97.9175 72.3019C99.3406 72.3019 100.705 72.8594 101.712 73.8517L112.425 84.4164ZM54.3518 74.3359C53.1966 73.5276 51.7636 73.2035 50.3666 73.4345C48.9696 73.6655 47.7222 74.4328 46.8975 75.5685L41.5857 82.8757H19.3564C17.9358 82.8757 16.5734 83.4323 15.5689 84.4229C14.5643 85.4135 14 86.7571 14 88.1581C14 89.559 14.5643 90.9026 15.5689 91.8933C16.5734 92.8839 17.9358 93.4404 19.3564 93.4404H42.523C43.9463 93.4374 45.3483 93.1005 46.6134 92.4575C47.8786 91.8146 48.9704 90.884 49.7989 89.7428L55.6017 81.7312C56.4237 80.5849 56.7536 79.1649 56.5196 77.78C56.2855 76.3951 55.5065 75.1573 54.3518 74.3359V74.3359ZM70.0641 52.6783C71.2193 53.4867 72.6523 53.8108 74.0493 53.5798C75.4463 53.3488 76.6937 52.5815 77.5184 51.4458L82.8302 44.1385H95.6857L94.1234 45.6792C93.624 46.17 93.2278 46.7531 92.9575 47.3952C92.6871 48.0373 92.5479 48.7257 92.5479 49.4209C92.5479 50.1161 92.6871 50.8045 92.9575 51.4466C93.2278 52.0887 93.624 52.6718 94.1234 53.1625C95.1342 54.1464 96.4973 54.6981 97.9175 54.6981C99.3378 54.6981 100.701 54.1464 101.712 53.1625L112.425 42.5979C112.924 42.1071 113.32 41.524 113.59 40.8819C113.861 40.2398 114 39.5514 114 38.8562C114 38.161 113.861 37.4726 113.59 36.8305C113.32 36.1884 112.924 35.6053 112.425 35.1145L101.712 24.5498C100.705 23.5575 99.3406 23 97.9175 23C96.4945 23 95.1297 23.5575 94.1234 24.5498C93.1171 25.5422 92.5518 26.8881 92.5518 28.2915C92.5518 29.6949 93.1171 31.0408 94.1234 32.0332L95.6857 33.5739H81.8929C80.4696 33.5769 79.0676 33.9138 77.8025 34.5568C76.5373 35.1997 75.4455 36.1302 74.617 37.2715L68.8142 45.2831C67.9921 46.4293 67.6623 47.8494 67.8963 49.2343C68.1304 50.6192 68.9094 51.8569 70.0641 52.6783V52.6783Z" fill="#1DBA53"/>
</svg>
