<svg width="471" height="62" viewBox="0 0 471 62" fill="none" xmlns="http://www.w3.org/2000/svg">
<path d="M8.5917 55H13.7467V41.2524H0V46.4078C0 48.6865 0.905195 50.872 2.51645 52.4834C4.12771 54.0947 6.31305 55 8.5917 55ZM13.7467 24.0679V37.8155H0V24.0679H13.7467ZM30.9302 37.8155H17.1834V24.0679H30.9302V37.8155ZM17.1834 41.2524H30.9302V55H17.1834V41.2524ZM34.3669 24.0679V37.8155H48.1136V24.0679H34.3669ZM34.3669 41.2524H48.1136V46.4078C48.1136 48.6865 47.2083 50.872 45.5971 52.4834C43.9859 54.0947 41.8005 55 39.5218 55H34.3669V41.2524ZM0 20.631H13.7467V6.88342H8.5917C6.31305 6.88342 4.12771 7.78868 2.51645 9.40004C0.905195 11.0114 0 13.1969 0 15.4757V20.631ZM17.1834 20.631V6.88342H30.9302V20.631H17.1834Z" fill="#17191C"/>
<path d="M46.3986 0C45.4873 0 44.6134 0.361958 43.9689 1.00628H43.9654L38.8001 6.17193C38.1559 6.81644 37.7939 7.69048 37.7939 8.60182C37.7939 9.51314 38.1559 10.3871 38.8001 11.0317L43.9689 16.1974C44.6134 16.8417 45.4873 17.2036 46.3986 17.2036C47.31 17.2036 48.1839 16.8417 48.8284 16.1974L53.9937 11.0317C54.638 10.3871 54.9999 9.51314 54.9999 8.60182C54.9999 7.69048 54.638 6.81644 53.9937 6.17193L48.8284 1.00628C48.1839 0.361958 47.31 0 46.3986 0Z" fill="#1DBA53"/>
<path d="M120.463 10.3V52.7285H112.501V25.5678L112.885 19.3964L111.446 26.4035L103.164 49.7071H95.2984L87.0489 26.4035L85.642 19.3964L85.9937 25.5678V52.7285H78V10.3H89.0633L98.7197 40.5464L99.2313 43.4392L99.7429 40.5464L109.431 10.3H120.463Z" fill="#17191C"/>
<path d="M141.41 53.5C138.617 53.5 136.123 52.8999 133.928 51.7C131.754 50.4999 130.048 48.8607 128.812 46.7821C127.576 44.6821 126.958 42.2928 126.958 39.6143C126.958 36.9357 127.576 34.5464 128.812 32.4464C130.048 30.325 131.754 28.6536 133.928 27.4322C136.123 26.1892 138.617 25.5679 141.41 25.5679C144.224 25.5679 146.707 26.1892 148.86 27.4322C151.014 28.6536 152.697 30.325 153.912 32.4464C155.127 34.5464 155.735 36.9357 155.735 39.6143C155.735 42.2928 155.127 44.6821 153.912 46.7821C152.697 48.8607 151.014 50.4999 148.86 51.7C146.707 52.8999 144.224 53.5 141.41 53.5ZM141.41 46.7178C142.753 46.7178 143.915 46.4178 144.895 45.8178C145.898 45.1964 146.665 44.3499 147.198 43.2786C147.752 42.1857 148.029 40.9535 148.029 39.5821C148.029 38.2106 147.752 36.9786 147.198 35.8857C146.665 34.7929 145.898 33.9357 144.895 33.3143C143.915 32.6714 142.753 32.35 141.41 32.35C140.067 32.35 138.895 32.6714 137.893 33.3143C136.913 33.9357 136.145 34.7929 135.591 35.8857C135.036 36.9786 134.759 38.2106 134.759 39.5821C134.759 40.9535 135.036 42.1857 135.591 43.2786C136.145 44.3499 136.913 45.1964 137.893 45.8178C138.895 46.4178 140.067 46.7178 141.41 46.7178Z" fill="#17191C"/>
<path d="M172.57 53.5C170.076 53.5 167.879 52.8999 165.983 51.7C164.106 50.4785 162.635 48.8177 161.57 46.7178C160.525 44.5964 160.003 42.2071 160.003 39.55C160.003 36.8928 160.525 34.5142 161.57 32.4143C162.635 30.2928 164.106 28.6214 165.983 27.4C167.879 26.1786 170.076 25.5679 172.57 25.5679C174.338 25.5679 175.905 25.8571 177.27 26.4357C178.655 27.0143 179.764 27.6999 180.595 28.4928C181.427 29.2857 181.916 29.9928 182.066 30.6143V8.5H190.22V52.7285H182.162V48.1321C181.82 48.882 181.192 49.675 180.275 50.5107C179.358 51.3464 178.239 52.0535 176.918 52.6321C175.596 53.2107 174.146 53.5 172.57 53.5ZM174.872 47.0071C176.236 47.0071 177.462 46.6963 178.549 46.075C179.636 45.4321 180.488 44.5535 181.107 43.4393C181.746 42.3035 182.066 41.007 182.066 39.55C182.066 38.0928 181.746 36.8071 181.107 35.6928C180.488 34.5571 179.636 33.6678 178.549 33.025C177.462 32.3821 176.236 32.0607 174.872 32.0607C173.614 32.0607 172.463 32.3821 171.418 33.025C170.373 33.6463 169.532 34.5249 168.892 35.6607C168.274 36.7749 167.964 38.0714 167.964 39.55C167.964 41.0285 168.274 42.3356 168.892 43.4714C169.532 44.5856 170.373 45.4535 171.418 46.075C172.463 46.6963 173.614 47.0071 174.872 47.0071Z" fill="#17191C"/>
<path d="M203.707 38.9714C203.707 41.3285 204.177 43.2143 205.115 44.6286C206.052 46.0213 207.566 46.7178 209.655 46.7178C211.765 46.7178 213.29 46.0213 214.228 44.6286C215.165 43.2143 215.634 41.3285 215.634 38.9714V26.3393H223.628V39.9036C223.628 42.6249 223.085 45.0143 221.998 47.0714C220.911 49.107 219.322 50.6928 217.233 51.8285C215.165 52.9428 212.639 53.5 209.655 53.5C206.692 53.5 204.166 52.9428 202.078 51.8285C200.009 50.6928 198.431 49.107 197.344 47.0714C196.257 45.0143 195.715 42.6249 195.715 39.9036V26.3393H203.707V38.9714Z" fill="#17191C"/>
<path d="M238.412 52.7285H230.258V8.5H238.412V52.7285Z" fill="#17191C"/>
<path d="M265.963 52.7285V48.1321C265.771 48.6035 265.281 49.2678 264.492 50.125C263.704 50.9821 262.638 51.7643 261.295 52.4714C259.973 53.157 258.417 53.5 256.627 53.5C254.112 53.5 251.883 52.8999 249.944 51.7C248.004 50.4785 246.48 48.8178 245.371 46.7178C244.284 44.5964 243.741 42.2071 243.741 39.55C243.741 36.8928 244.284 34.5142 245.371 32.4143C246.48 30.2929 248.004 28.6214 249.944 27.4C251.883 26.1786 254.112 25.5679 256.627 25.5679C258.374 25.5679 259.888 25.8678 261.167 26.4679C262.467 27.0464 263.512 27.7321 264.301 28.525C265.111 29.2964 265.633 29.9928 265.867 30.6143V26.3393H273.925V52.7285H265.963ZM251.702 39.55C251.702 41.0286 252.033 42.3357 252.694 43.4714C253.354 44.5857 254.228 45.4535 255.316 46.075C256.403 46.6963 257.586 47.0071 258.865 47.0071C260.208 47.0071 261.402 46.6963 262.446 46.075C263.49 45.4321 264.312 44.5535 264.908 43.4393C265.527 42.3035 265.835 41.0071 265.835 39.55C265.835 38.0928 265.527 36.8071 264.908 35.6929C264.312 34.5571 263.49 33.6679 262.446 33.025C261.402 32.3821 260.208 32.0607 258.865 32.0607C257.586 32.0607 256.403 32.3821 255.316 33.025C254.228 33.6464 253.354 34.525 252.694 35.6607C252.033 36.775 251.702 38.0714 251.702 39.55Z" fill="#17191C"/>
<path d="M288.17 52.7285H280.048V26.3393H288.17V30.6143H288.01C288.16 30.1 288.564 29.4464 289.225 28.6536C289.907 27.8607 290.846 27.1535 292.039 26.5322C293.233 25.8893 294.672 25.5679 296.355 25.5679C297.57 25.5679 298.668 25.75 299.65 26.1143C300.651 26.4571 301.365 26.7999 301.791 27.1429L298.595 33.8286C298.317 33.4857 297.794 33.1321 297.027 32.7679C296.281 32.4035 295.343 32.2214 294.213 32.2214C292.87 32.2214 291.751 32.5964 290.856 33.3464C289.96 34.075 289.289 34.975 288.841 36.0464C288.394 37.0964 288.17 38.0821 288.17 39.0036V52.7285Z" fill="#17191C"/>
<path d="M363.771 10.3V52.7285H355.81V25.5678L356.193 19.3964L354.754 26.4035L346.473 49.7071H338.607L330.358 26.4035L328.951 19.3964L329.302 25.5678V52.7285H321.309V10.3H332.372L342.028 40.5464L342.54 43.4392L343.052 40.5464L352.74 10.3H363.771Z" fill="#17191C"/>
<path d="M379.507 38.9714C379.507 41.3285 379.976 43.2143 380.914 44.6286C381.852 46.0213 383.365 46.7178 385.454 46.7178C387.565 46.7178 389.088 46.0213 390.027 44.6286C390.965 43.2143 391.434 41.3285 391.434 38.9714V26.3393H399.427V39.9036C399.427 42.6249 398.884 45.0143 397.797 47.0714C396.709 49.107 395.122 50.6928 393.032 51.8285C390.965 52.9428 388.439 53.5 385.454 53.5C382.492 53.5 379.966 52.9428 377.876 51.8285C375.809 50.6928 374.231 49.107 373.144 47.0714C372.057 45.0143 371.513 42.6249 371.513 39.9036V26.3393H379.507V38.9714Z" fill="#17191C"/>
<path d="M416.838 25.5679C418.415 25.5679 419.875 25.7178 421.218 26.0179C422.561 26.2964 423.691 26.6178 424.608 26.9822C425.546 27.3464 426.163 27.6572 426.462 27.9143L423.68 32.8321C423.254 32.4892 422.486 32.0821 421.378 31.6107C420.291 31.1392 419.076 30.9036 417.733 30.9036C416.518 30.9036 415.495 31.1178 414.663 31.5464C413.832 31.9535 413.416 32.575 413.416 33.4107C413.416 34.2464 413.864 34.9107 414.759 35.4036C415.655 35.8964 416.902 36.325 418.5 36.6893C419.843 36.9678 421.165 37.3964 422.465 37.975C423.765 38.5321 424.842 39.3464 425.695 40.4178C426.547 41.4678 426.974 42.8714 426.974 44.6286C426.974 46.3643 426.601 47.8107 425.855 48.9678C425.13 50.1035 424.16 51.0035 422.945 51.6678C421.73 52.3321 420.398 52.8035 418.948 53.0821C417.498 53.3607 416.059 53.5 414.631 53.5C412.777 53.5 411.146 53.3178 409.739 52.9535C408.332 52.6106 407.17 52.2143 406.254 51.7643C405.359 51.2928 404.719 50.8964 404.335 50.575L407.117 45.1107C407.672 45.6035 408.577 46.1499 409.835 46.75C411.114 47.3286 412.489 47.6178 413.96 47.6178C415.495 47.6178 416.699 47.3499 417.573 46.8143C418.468 46.2785 418.916 45.5607 418.916 44.6607C418.916 43.9963 418.703 43.4607 418.276 43.0536C417.85 42.625 417.264 42.2714 416.518 41.9928C415.771 41.7142 414.898 41.4678 413.896 41.2536C412.98 41.0607 412.041 40.7821 411.082 40.4178C410.123 40.0321 409.228 39.5285 408.396 38.9071C407.565 38.2857 406.893 37.5142 406.382 36.5929C405.87 35.65 405.614 34.525 405.614 33.2179C405.614 31.5464 406.147 30.1535 407.213 29.0393C408.279 27.9035 409.664 27.0464 411.37 26.4679C413.076 25.8678 414.898 25.5679 416.838 25.5679Z" fill="#17191C"/>
<path d="M433.108 52.7285V26.3393H441.198V52.7285H433.108ZM437.265 19.525C435.922 19.525 434.782 19.0535 433.843 18.1107C432.927 17.1678 432.468 16.0428 432.468 14.7357C432.468 13.4285 432.937 12.2929 433.875 11.3286C434.814 10.3643 435.943 9.88214 437.265 9.88214C438.139 9.88214 438.938 10.1071 439.663 10.5571C440.387 10.9856 440.974 11.5642 441.421 12.2929C441.869 13.0214 442.093 13.8357 442.093 14.7357C442.093 16.0428 441.613 17.1678 440.654 18.1107C439.716 19.0535 438.587 19.525 437.265 19.525Z" fill="#17191C"/>
<path d="M462.111 47.0071C463.496 47.0071 464.626 46.7714 465.5 46.3C466.374 45.8285 466.949 45.4749 467.227 45.2393L471 50.8643C470.701 51.0999 470.147 51.4321 469.337 51.8607C468.527 52.2892 467.493 52.6643 466.235 52.9857C464.999 53.3285 463.581 53.5 461.982 53.5C459.211 53.5 456.728 52.9428 454.532 51.8285C452.337 50.6928 450.599 49.0857 449.32 47.0071C448.063 44.9071 447.434 42.4107 447.434 39.5178C447.434 36.6035 448.063 34.1071 449.32 32.0286C450.599 29.9499 452.337 28.3535 454.532 27.2393C456.728 26.1249 459.211 25.5679 461.982 25.5679C463.56 25.5679 464.957 25.7392 466.172 26.0822C467.408 26.425 468.442 26.8214 469.273 27.2714C470.105 27.6999 470.68 28.0535 471 28.3322L467.13 33.9893C466.981 33.8178 466.693 33.5821 466.268 33.2821C465.841 32.9821 465.276 32.7036 464.572 32.4464C463.891 32.1893 463.07 32.0607 462.111 32.0607C460.938 32.0607 459.819 32.3714 458.753 32.9929C457.709 33.6142 456.856 34.4821 456.195 35.5964C455.534 36.7107 455.203 38.0178 455.203 39.5178C455.203 41.0178 455.534 42.3357 456.195 43.4714C456.856 44.5857 457.709 45.4535 458.753 46.075C459.819 46.6963 460.938 47.0071 462.111 47.0071Z" fill="#17191C"/>
</svg>
