<svg width="474" height="57" viewBox="0 0 474 57" fill="none" xmlns="http://www.w3.org/2000/svg">
<path d="M8.87574 57H14.2012V42.7979H0V48.1237C0 50.4778 0.93512 52.7355 2.59964 54.4002C4.26417 56.0648 6.52175 57 8.87574 57ZM14.2012 25.0453V39.2474H0V25.0453H14.2012ZM31.9527 39.2474H17.7515V25.0453H31.9527V39.2474ZM17.7515 42.7979H31.9527V57H17.7515V42.7979ZM35.503 25.0453V39.2474H49.7042V25.0453H35.503ZM35.503 42.7979H49.7042V48.1237C49.7042 50.4778 48.769 52.7355 47.1045 54.4002C45.44 56.0648 43.1824 57 40.8284 57H35.503V42.7979ZM0 21.4948H14.2012V7.29272H8.87574C6.52175 7.29272 4.26417 8.2279 2.59964 9.89253C0.93512 11.5572 0 13.8149 0 16.169V21.4948ZM17.7515 21.4948V7.29272H31.9527V21.4948H17.7515Z" fill="white"/>
<path d="M47.9326 0.181763C46.9912 0.181763 46.0884 0.555687 45.4226 1.22131H45.419L40.0829 6.55773C39.4174 7.22355 39.0435 8.12648 39.0435 9.06795C39.0435 10.0094 39.4174 10.9123 40.0829 11.5782L45.4226 16.9146C46.0884 17.5802 46.9912 17.9541 47.9326 17.9541C48.8741 17.9541 49.7769 17.5802 50.4427 16.9146L55.7788 11.5782C56.4444 10.9123 56.8183 10.0094 56.8183 9.06795C56.8183 8.12648 56.4444 7.22355 55.7788 6.55773L50.4427 1.22131C49.7769 0.555687 48.8741 0.181763 47.9326 0.181763Z" fill="#1DBA53"/>
<path d="M122.496 11.392V53.632H114.528V26.592L114.912 20.448L113.472 27.424L105.184 50.624H97.312L89.056 27.424L87.648 20.448L88 26.592V53.632H80V11.392H91.072L100.736 41.504L101.248 44.384L101.76 41.504L111.456 11.392H122.496Z" fill="white"/>
<path d="M143.46 54.4C140.665 54.4 138.169 53.8026 135.972 52.608C133.796 51.4133 132.089 49.7813 130.852 47.712C129.615 45.6213 128.996 43.2426 128.996 40.576C128.996 37.9093 129.615 35.5306 130.852 33.44C132.089 31.328 133.796 29.664 135.972 28.448C138.169 27.2106 140.665 26.592 143.46 26.592C146.276 26.592 148.761 27.2106 150.916 28.448C153.071 29.664 154.756 31.328 155.972 33.44C157.188 35.5306 157.796 37.9093 157.796 40.576C157.796 43.2426 157.188 45.6213 155.972 47.712C154.756 49.7813 153.071 51.4133 150.916 52.608C148.761 53.8026 146.276 54.4 143.46 54.4ZM143.46 47.648C144.804 47.648 145.967 47.3493 146.948 46.752C147.951 46.1333 148.719 45.2906 149.252 44.224C149.807 43.136 150.084 41.9093 150.084 40.544C150.084 39.1786 149.807 37.952 149.252 36.864C148.719 35.776 147.951 34.9226 146.948 34.304C145.967 33.664 144.804 33.344 143.46 33.344C142.116 33.344 140.943 33.664 139.94 34.304C138.959 34.9226 138.191 35.776 137.636 36.864C137.081 37.952 136.804 39.1786 136.804 40.544C136.804 41.9093 137.081 43.136 137.636 44.224C138.191 45.2906 138.959 46.1333 139.94 46.752C140.943 47.3493 142.116 47.648 143.46 47.648Z" fill="white"/>
<path d="M174.644 54.4C172.148 54.4 169.95 53.8026 168.052 52.608C166.174 51.392 164.702 49.7386 163.636 47.648C162.59 45.536 162.068 43.1573 162.068 40.512C162.068 37.8666 162.59 35.4986 163.636 33.408C164.702 31.296 166.174 29.632 168.052 28.416C169.95 27.2 172.148 26.592 174.644 26.592C176.414 26.592 177.982 26.88 179.348 27.456C180.734 28.032 181.844 28.7146 182.676 29.504C183.508 30.2933 183.998 30.9973 184.148 31.616V9.59998H192.308V53.632H184.244V49.056C183.902 49.8026 183.273 50.592 182.356 51.424C181.438 52.256 180.318 52.96 178.996 53.536C177.673 54.112 176.222 54.4 174.644 54.4ZM176.948 47.936C178.313 47.936 179.54 47.6266 180.628 47.008C181.716 46.368 182.569 45.4933 183.188 44.384C183.828 43.2533 184.148 41.9626 184.148 40.512C184.148 39.0613 183.828 37.7813 183.188 36.672C182.569 35.5413 181.716 34.656 180.628 34.016C179.54 33.376 178.313 33.056 176.948 33.056C175.689 33.056 174.537 33.376 173.492 34.016C172.446 34.6346 171.604 35.5093 170.964 36.64C170.345 37.7493 170.035 39.04 170.035 40.512C170.035 41.984 170.345 43.2853 170.964 44.416C171.604 45.5253 172.446 46.3893 173.492 47.008C174.537 47.6266 175.689 47.936 176.948 47.936Z" fill="white"/>
<path d="M205.806 39.936C205.806 42.2826 206.276 44.16 207.215 45.568C208.153 46.9546 209.668 47.648 211.758 47.648C213.87 47.648 215.396 46.9546 216.335 45.568C217.273 44.16 217.742 42.2826 217.742 39.936V27.36H225.742V40.864C225.742 43.5733 225.199 45.952 224.111 48C223.023 50.0266 221.433 51.6053 219.342 52.736C217.273 53.8453 214.745 54.4 211.758 54.4C208.793 54.4 206.265 53.8453 204.175 52.736C202.105 51.6053 200.526 50.0266 199.438 48C198.35 45.952 197.807 43.5733 197.807 40.864V27.36H205.806V39.936Z" fill="white"/>
<path d="M240.538 53.632H232.378V9.59998H240.538V53.632Z" fill="white"/>
<path d="M268.111 53.632V49.056C267.919 49.5253 267.428 50.1866 266.639 51.04C265.85 51.8933 264.783 52.672 263.439 53.376C262.116 54.0586 260.559 54.4 258.767 54.4C256.25 54.4 254.02 53.8026 252.079 52.608C250.138 51.392 248.612 49.7386 247.503 47.648C246.415 45.536 245.871 43.1573 245.871 40.512C245.871 37.8666 246.415 35.4986 247.503 33.408C248.612 31.296 250.138 29.632 252.079 28.416C254.02 27.2 256.25 26.592 258.767 26.592C260.516 26.592 262.031 26.8906 263.311 27.488C264.612 28.064 265.658 28.7466 266.447 29.536C267.258 30.304 267.78 30.9973 268.015 31.616V27.36H276.079V53.632H268.111ZM253.839 40.512C253.839 41.984 254.17 43.2853 254.831 44.416C255.492 45.5253 256.367 46.3893 257.455 47.008C258.543 47.6266 259.727 47.936 261.007 47.936C262.351 47.936 263.546 47.6266 264.591 47.008C265.636 46.368 266.458 45.4933 267.055 44.384C267.674 43.2533 267.983 41.9626 267.983 40.512C267.983 39.0613 267.674 37.7813 267.055 36.672C266.458 35.5413 265.636 34.656 264.591 34.016C263.546 33.376 262.351 33.056 261.007 33.056C259.727 33.056 258.543 33.376 257.455 34.016C256.367 34.6346 255.492 35.5093 254.831 36.64C254.17 37.7493 253.839 39.04 253.839 40.512Z" fill="white"/>
<path d="M290.335 53.632H282.207V27.36H290.335V31.616H290.175C290.325 31.104 290.73 30.4533 291.391 29.664C292.074 28.8746 293.013 28.1706 294.207 27.552C295.402 26.912 296.842 26.592 298.527 26.592C299.743 26.592 300.842 26.7733 301.824 27.136C302.826 27.4773 303.541 27.8186 303.967 28.16L300.768 34.816C300.49 34.4746 299.967 34.1226 299.199 33.76C298.453 33.3973 297.514 33.216 296.383 33.216C295.039 33.216 293.919 33.5893 293.023 34.336C292.127 35.0613 291.455 35.9573 291.007 37.024C290.559 38.0693 290.335 39.0506 290.335 39.968V53.632Z" fill="white"/>
<path d="M365.996 11.392V53.632H358.028V26.592L358.412 20.448L356.972 27.424L348.684 50.624H340.812L332.556 27.424L331.148 20.448L331.5 26.592V53.632H323.5V11.392H334.572L344.236 41.504L344.748 44.384L345.26 41.504L354.956 11.392H365.996Z" fill="white"/>
<path d="M381.744 39.936C381.744 42.2826 382.213 44.16 383.152 45.568C384.091 46.9546 385.605 47.648 387.696 47.648C389.808 47.648 391.333 46.9546 392.272 45.568C393.211 44.16 393.68 42.2826 393.68 39.936V27.36H401.68V40.864C401.68 43.5733 401.136 45.952 400.048 48C398.96 50.0266 397.371 51.6053 395.28 52.736C393.211 53.8453 390.683 54.4 387.696 54.4C384.731 54.4 382.203 53.8453 380.112 52.736C378.043 51.6053 376.464 50.0266 375.376 48C374.288 45.952 373.744 43.5733 373.744 40.864V27.36H381.744V39.936Z" fill="white"/>
<path d="M419.104 26.592C420.683 26.592 422.144 26.7413 423.488 27.04C424.832 27.3173 425.963 27.6373 426.88 28C427.819 28.3626 428.437 28.672 428.736 28.928L425.952 33.824C425.525 33.4826 424.757 33.0773 423.648 32.608C422.56 32.1386 421.344 31.904 420 31.904C418.784 31.904 417.76 32.1173 416.928 32.544C416.096 32.9493 415.68 33.568 415.68 34.4C415.68 35.232 416.128 35.8933 417.024 36.384C417.92 36.8746 419.168 37.3013 420.768 37.664C422.112 37.9413 423.435 38.368 424.736 38.944C426.037 39.4986 427.115 40.3093 427.968 41.376C428.821 42.4213 429.248 43.8186 429.248 45.568C429.248 47.296 428.875 48.736 428.128 49.888C427.403 51.0186 426.432 51.9146 425.216 52.576C424 53.2373 422.667 53.7066 421.216 53.984C419.765 54.2613 418.325 54.4 416.896 54.4C415.04 54.4 413.408 54.2186 412 53.856C410.592 53.5146 409.429 53.12 408.512 52.672C407.616 52.2026 406.976 51.808 406.592 51.488L409.376 46.048C409.931 46.5386 410.837 47.0826 412.096 47.68C413.376 48.256 414.752 48.544 416.224 48.544C417.76 48.544 418.965 48.2773 419.84 47.744C420.736 47.2106 421.184 46.496 421.184 45.6C421.184 44.9386 420.971 44.4053 420.544 44C420.117 43.5733 419.531 43.2213 418.784 42.944C418.037 42.6666 417.163 42.4213 416.16 42.208C415.243 42.016 414.304 41.7386 413.344 41.376C412.384 40.992 411.488 40.4906 410.656 39.872C409.824 39.2533 409.152 38.4853 408.64 37.568C408.128 36.6293 407.872 35.5093 407.872 34.208C407.872 32.544 408.405 31.1573 409.472 30.048C410.539 28.9173 411.925 28.064 413.632 27.488C415.339 26.8906 417.163 26.592 419.104 26.592Z" fill="white"/>
<path d="M435.387 53.632V27.36H443.483V53.632H435.387ZM439.547 20.576C438.203 20.576 437.062 20.1066 436.123 19.168C435.206 18.2293 434.747 17.1093 434.747 15.808C434.747 14.5066 435.216 13.376 436.155 12.416C437.094 11.456 438.224 10.976 439.547 10.976C440.422 10.976 441.222 11.2 441.947 11.648C442.672 12.0746 443.259 12.6506 443.707 13.376C444.155 14.1013 444.379 14.912 444.379 15.808C444.379 17.1093 443.899 18.2293 442.939 19.168C442 20.1066 440.87 20.576 439.547 20.576Z" fill="white"/>
<path d="M464.413 47.936C465.799 47.936 466.93 47.7013 467.805 47.232C468.679 46.7626 469.255 46.4106 469.533 46.176L473.309 51.776C473.01 52.0106 472.455 52.3413 471.645 52.768C470.834 53.1946 469.799 53.568 468.54 53.888C467.303 54.2293 465.884 54.4 464.284 54.4C461.511 54.4 459.026 53.8453 456.828 52.736C454.631 51.6053 452.892 50.0053 451.612 47.936C450.354 45.8453 449.724 43.36 449.724 40.48C449.724 37.5786 450.354 35.0933 451.612 33.024C452.892 30.9546 454.631 29.3653 456.828 28.256C459.026 27.1466 461.511 26.592 464.284 26.592C465.863 26.592 467.261 26.7626 468.477 27.104C469.714 27.4453 470.749 27.84 471.581 28.288C472.413 28.7146 472.989 29.0666 473.309 29.344L469.436 34.976C469.287 34.8053 468.999 34.5706 468.573 34.272C468.146 33.9733 467.58 33.696 466.876 33.44C466.194 33.184 465.373 33.056 464.413 33.056C463.239 33.056 462.119 33.3653 461.052 33.984C460.007 34.6026 459.154 35.4666 458.492 36.576C457.831 37.6853 457.5 38.9866 457.5 40.48C457.5 41.9733 457.831 43.2853 458.492 44.416C459.154 45.5253 460.007 46.3893 461.052 47.008C462.119 47.6266 463.239 47.936 464.413 47.936Z" fill="white"/>
</svg>
